<svg viewBox="0 0 30 30" version="1.1" id="svg3336" class="ico-menu"><path d="M1.435 8.742A1.445 1.445 0 0 1 0 7.29c0-.8.644-1.452 1.435-1.452h27.13c.791 0 1.435.652 1.435 1.452 0 .8-.644 1.452-1.435 1.452H1.435z" class="ico-menu-top" fill="#32a89b"/><path d="M1.435 16.484A1.445 1.445 0 0 1 0 15.032c0-.8.644-1.452 1.435-1.452h27.13c.791 0 1.435.652 1.435 1.452 0 .8-.644 1.452-1.435 1.452H1.435z" class="ico-menu-middle" fill="#32a89b"/><path d="M1.435 24.226A1.445 1.445 0 0 1 0 22.774c0-.8.644-1.452 1.435-1.452h27.13c.791 0 1.435.652 1.435 1.452 0 .8-.644 1.452-1.435 1.452H1.435z" class="ico-menu-bottom" fill="#32a89b"/></svg>
